<svg width="171" height="51" viewBox="0 0 171 51" fill="none" xmlns="http://www.w3.org/2000/svg">
<path fill-rule="evenodd" clip-rule="evenodd" d="M0 0V4.7018V8.46253V42.0015V50.4644H8.25681H40.5989H48.8557V42.0015V23.0206V14.5577H40.5989H35.218V8.46253V3.74722V0H0ZM8.14261 8.41074H26.9791V14.5248H22.895H14.5799V23.0139V27.4509V35.9396H22.895H26.9791H35.2942V27.4509V23.0139H40.7131V42.0537H8.14261V8.41074ZM21.7136 28.0358H27.142V22.4286H21.7136V28.0358Z" fill="#2868D5"/>
<path d="M67.7712 12.6864V2.78424H71.2832V0.0703125H61.0781V2.78424H64.5718V12.6864H67.7712ZM75.5801 12.6864V7.73534H79.6253V12.6864H82.8247V0.0703125H79.6253V4.98473H75.5801V0.0703125H72.3806V12.6864H75.5801ZM93.9618 12.6864V10.1009H88.1881V7.60697H93.0792V5.0214H88.1881V2.65588H93.9618V0.0703125H84.9887V12.6864H93.9618Z" fill="#667291"/>
<path d="M69.883 31.9278C71.3694 31.9278 72.4374 31.6071 73.0869 30.9657C73.7363 30.3243 74.0611 29.3692 74.0611 28.1003C74.0611 26.9988 73.8669 26.197 73.4785 25.6951C73.0902 25.1931 72.4407 24.8375 71.5301 24.6284V24.5447C72.3738 24.3495 72.9864 23.9905 73.3681 23.4676C73.7497 22.9447 73.9405 22.1743 73.9405 21.1564C73.9405 19.9433 73.6058 19.037 72.9362 18.4374C72.2666 17.8379 71.2556 17.5381 69.9031 17.5381H62.9531V31.9278H69.883ZM68.6377 23.2689H66.4281V20.4662H68.6377C69.1599 20.4662 69.5382 20.5011 69.7726 20.5708C70.0069 20.6405 70.1676 20.773 70.2546 20.9682C70.3417 21.1634 70.3852 21.4632 70.3852 21.8676C70.3852 22.258 70.3383 22.5508 70.2446 22.746C70.1509 22.9412 69.9835 23.0772 69.7424 23.1538C69.5014 23.2305 69.1331 23.2689 68.6377 23.2689ZM68.7381 28.9997H66.4281V26.0506H68.7381C69.247 26.0506 69.6252 26.089 69.873 26.1656C70.1207 26.2423 70.2881 26.3853 70.3752 26.5944C70.4622 26.8036 70.5057 27.1243 70.5057 27.5565C70.5057 27.9748 70.4588 28.2816 70.3651 28.4768C70.2714 28.672 70.104 28.8079 69.8629 28.8846C69.6219 28.9613 69.247 28.9997 68.7381 28.9997ZM85.5306 31.9278V28.8323H80.0469V17.5381H76.5518V31.9278H85.5306ZM92.8823 32.0951C94.6097 32.0951 95.8551 31.9069 96.6184 31.5304C97.3817 31.1539 97.8738 30.523 98.0948 29.6376C98.3157 28.7522 98.4262 27.3474 98.4262 25.4232V17.5381H94.9311V26.197C94.9311 27.187 94.8976 27.8702 94.8307 28.2467C94.7637 28.6232 94.5963 28.8742 94.3285 28.9997C94.0607 29.1252 93.5786 29.1879 92.8823 29.1879C92.1859 29.1879 91.7039 29.1252 91.436 28.9997C91.1682 28.8742 91.0008 28.6232 90.9339 28.2467C90.8669 27.8702 90.8334 27.187 90.8334 26.197V17.5381H87.3384V25.4232C87.3384 27.3474 87.4488 28.7522 87.6698 29.6376C87.8907 30.523 88.3829 31.1539 89.1462 31.5304C89.9094 31.9069 91.1548 32.0951 92.8823 32.0951ZM111.061 31.9278V28.9788H104.753V26.1343H110.097V23.1852H104.753V20.4871H111.061V17.5381H101.258V31.9278H111.061ZM117.107 31.9278V27.3055H120.18C121.425 27.3055 122.366 27.1034 123.002 26.699C123.638 26.2946 124.053 25.7508 124.248 25.0676C124.442 24.3844 124.539 23.5059 124.539 22.4323C124.539 21.2889 124.435 20.3756 124.228 19.6924C124.02 19.0091 123.601 18.4793 122.972 18.1028C122.343 17.7263 121.412 17.5381 120.18 17.5381H113.612V31.9278H117.107ZM118.734 24.3983H117.107V20.4662H118.734C119.457 20.4662 119.969 20.5115 120.27 20.6022C120.572 20.6928 120.769 20.8671 120.863 21.1251C120.957 21.383 121.004 21.8187 121.004 22.4323C121.004 23.0458 120.957 23.4815 120.863 23.7395C120.769 23.9974 120.568 24.1717 120.26 24.2624C119.952 24.353 119.444 24.3983 118.734 24.3983ZM130.163 31.9278V26.8872H132.594L134.401 31.9278H138.057L135.928 26.448C136.665 26.1134 137.157 25.5765 137.404 24.8375C137.652 24.0985 137.776 23.227 137.776 22.2231C137.776 21.1355 137.672 20.2675 137.465 19.6192C137.257 18.9708 136.829 18.4618 136.179 18.0923C135.53 17.7228 134.569 17.5381 133.297 17.5381H126.668V31.9278H130.163ZM131.971 24.0009H130.163V20.4662H132.011C132.734 20.4662 133.246 20.5081 133.548 20.5917C133.849 20.6754 134.04 20.8322 134.12 21.0623C134.201 21.2924 134.241 21.6863 134.241 22.244C134.241 22.7878 134.194 23.1748 134.1 23.4048C134.006 23.6349 133.809 23.7918 133.508 23.8754C133.206 23.9591 132.694 24.0009 131.971 24.0009ZM143.762 31.9278V17.5381H140.267V31.9278H143.762ZM149.949 31.9278V23.7081H150.049L154.83 31.9278H158.104V17.5381H154.749V25.0048H154.649L150.21 17.5381H146.614V31.9278H149.949ZM167.163 31.9278V20.6336H170.999V17.5381H159.851V20.6336H163.668V31.9278H167.163Z" fill="#2868D5"/>
<path d="M68.5942 50.3805V39.9589H72.0461V37.1026H62.0156V39.9589H65.4495V50.3805H68.5942ZM76.3056 50.3805V45.7294H78.4924L80.1189 50.3805H83.4082L81.4925 45.3241C82.1552 45.0153 82.5979 44.5199 82.8208 43.838C83.0437 43.1561 83.1552 42.352 83.1552 41.4256C83.1552 40.4221 83.0618 39.6212 82.8751 39.0229C82.6883 38.4246 82.3027 37.955 81.7184 37.6141C81.134 37.2731 80.2695 37.1026 79.1249 37.1026H73.1609V50.3805H76.3056ZM77.9321 43.0661H76.3056V39.8045H77.9683C78.6189 39.8045 79.0798 39.8431 79.3508 39.9203C79.6219 39.9975 79.7936 40.1423 79.8659 40.3545C79.9382 40.5668 79.9744 40.9303 79.9744 41.445C79.9744 41.9467 79.9322 42.3038 79.8478 42.5161C79.7635 42.7283 79.5858 42.8731 79.3147 42.9503C79.0436 43.0275 78.5827 43.0661 77.9321 43.0661ZM86.9267 50.3805L87.6316 47.8716H92.0594L92.8004 50.3805H95.9993L92.0233 37.1026H87.7581L83.782 50.3805H86.9267ZM91.3184 45.1504H88.3545L89.7822 40.0747H89.8726L91.3184 45.1504ZM100.096 50.3805V37.1026H96.9515V50.3805H100.096ZM105.187 50.3805V42.7959H105.277L109.579 50.3805H112.525V37.1026H109.506V43.9924H109.416L105.422 37.1026H102.187V50.3805H105.187ZM117.76 50.3805V37.1026H114.615V50.3805H117.76ZM122.851 50.3805V42.7959H122.941L127.243 50.3805H130.188V37.1026H127.17V43.9924H127.08L123.086 37.1026H119.851V50.3805H122.851ZM137.575 50.5349C138.189 50.5349 138.903 50.493 139.716 50.4094C140.529 50.3258 141.249 50.2196 141.876 50.091V42.6222H137.231V45.1697H138.948V47.833C138.55 47.8716 138.135 47.8909 137.701 47.8909C136.918 47.8909 136.355 47.7879 136.011 47.5821C135.668 47.3762 135.442 46.9999 135.333 46.4531C135.225 45.9063 135.171 45.0024 135.171 43.7415C135.171 42.352 135.243 41.3935 135.388 40.866C135.532 40.3385 135.824 40.0072 136.264 39.8721C136.704 39.737 137.52 39.6694 138.713 39.6694C139.436 39.6694 140.472 39.7595 141.822 39.9396V37.3921C141.629 37.3278 141.093 37.2377 140.213 37.1219C139.334 37.0061 138.448 36.9482 137.556 36.9482C136.002 36.9482 134.833 37.1509 134.05 37.5562C133.267 37.9615 132.728 38.6369 132.433 39.5826C132.138 40.5282 131.99 41.9146 131.99 43.7415C131.99 45.6972 132.135 47.1414 132.424 48.0742C132.713 49.007 133.243 49.6503 134.014 50.0041C134.785 50.3579 135.972 50.5349 137.575 50.5349Z" fill="#253662"/>
</svg>
