<svg width="171" height="47" viewBox="0 0 171 47" fill="none" xmlns="http://www.w3.org/2000/svg">
<path fill-rule="evenodd" clip-rule="evenodd" d="M0 0V4.33124V7.79558V38.6912V46.4872H8.25681H40.5989H48.8557V38.6912V21.2063V13.4103H40.5989H35.218V7.79558V3.45189V0H0ZM8.14261 7.74786H26.9791V13.38H22.895H14.5799V21.2001V25.2874V33.1071H22.895H26.9791H35.2942V25.2874V21.2001H40.7131V38.7393H8.14261V7.74786ZM21.7136 25.8262H27.142V20.661H21.7136V25.8262Z" fill="white"/>
<path d="M67.7712 11.6882V2.56645H71.2832V0.0664062H61.0781V2.56645H64.5718V11.6882H67.7712ZM75.5801 11.6882V7.12733H79.6253V11.6882H82.8247V0.0664062H79.6253V4.5935H75.5801V0.0664062H72.3806V11.6882H75.5801ZM93.9618 11.6882V9.30642H88.1881V7.00908H93.0792V4.62729H88.1881V2.4482H93.9618V0.0664062H84.9887V11.6882H93.9618Z" fill="white"/>
<path d="M69.883 29.4119C71.3694 29.4119 72.4374 29.1165 73.0869 28.5256C73.7363 27.9348 74.0611 27.0549 74.0611 25.886C74.0611 24.8713 73.8669 24.1328 73.4785 23.6703C73.0902 23.2079 72.4407 22.8804 71.5301 22.6877V22.6107C72.3738 22.4308 72.9864 22.1001 73.3681 21.6184C73.7497 21.1367 73.9405 20.4271 73.9405 19.4894C73.9405 18.3719 73.6058 17.537 72.9362 16.9847C72.2666 16.4324 71.2556 16.1562 69.9031 16.1562H62.9531V29.4119H69.883ZM68.6377 21.4354H66.4281V18.8536H68.6377C69.1599 18.8536 69.5382 18.8857 69.7726 18.95C70.0069 19.0142 70.1676 19.1362 70.2546 19.316C70.3417 19.4958 70.3852 19.772 70.3852 20.1445C70.3852 20.5041 70.3383 20.7739 70.2446 20.9537C70.1509 21.1335 69.9835 21.2588 69.7424 21.3294C69.5014 21.4001 69.1331 21.4354 68.6377 21.4354ZM68.7381 26.7145H66.4281V23.9979H68.7381C69.247 23.9979 69.6252 24.0332 69.873 24.1038C70.1207 24.1745 70.2881 24.3062 70.3752 24.4988C70.4622 24.6915 70.5057 24.9869 70.5057 25.3851C70.5057 25.7704 70.4588 26.053 70.3651 26.2328C70.2714 26.4127 70.104 26.5379 69.8629 26.6085C69.6219 26.6792 69.247 26.7145 68.7381 26.7145ZM85.5306 29.4119V26.5604H80.0469V16.1562H76.5518V29.4119H85.5306ZM92.8823 29.566C94.6097 29.566 95.8551 29.3926 96.6184 29.0458C97.3817 28.699 97.8738 28.1178 98.0948 27.3022C98.3157 26.4865 98.4262 25.1924 98.4262 23.4199V16.1562H94.9311V24.1327C94.9311 25.0447 94.8976 25.6741 94.8307 26.0209C94.7637 26.3677 94.5963 26.5989 94.3285 26.7145C94.0607 26.8301 93.5786 26.8879 92.8823 26.8879C92.1859 26.8879 91.7039 26.8301 91.436 26.7145C91.1682 26.5989 91.0008 26.3677 90.9339 26.0209C90.8669 25.6741 90.8334 25.0447 90.8334 24.1327V16.1562H87.3384V23.4199C87.3384 25.1924 87.4488 26.4865 87.6698 27.3022C87.8907 28.1178 88.3829 28.699 89.1462 29.0458C89.9094 29.3926 91.1548 29.566 92.8823 29.566ZM111.061 29.4119V26.6952H104.753V24.0749H110.097V21.3583H104.753V18.8729H111.061V16.1562H101.258V29.4119H111.061ZM117.107 29.4119V25.1539H120.18C121.425 25.1539 122.366 24.9676 123.002 24.5952C123.638 24.2227 124.053 23.7217 124.248 23.0923C124.442 22.463 124.539 21.6537 124.539 20.6647C124.539 19.6114 124.435 18.7701 124.228 18.1407C124.02 17.5114 123.601 17.0233 122.972 16.6765C122.343 16.3297 121.412 16.1562 120.18 16.1562H113.612V29.4119H117.107ZM118.734 22.4758H117.107V18.8536H118.734C119.457 18.8536 119.969 18.8954 120.27 18.9789C120.572 19.0623 120.769 19.2229 120.863 19.4605C120.957 19.6981 121.004 20.0995 121.004 20.6647C121.004 21.2299 120.957 21.6313 120.863 21.8689C120.769 22.1065 120.568 22.2671 120.26 22.3506C119.952 22.4341 119.444 22.4758 118.734 22.4758ZM130.163 29.4119V24.7686H132.594L134.401 29.4119H138.057L135.928 24.364C136.665 24.0557 137.157 23.5612 137.404 22.8804C137.652 22.1996 137.776 21.3968 137.776 20.472C137.776 19.4702 137.672 18.6706 137.465 18.0733C137.257 17.476 136.829 17.0072 136.179 16.6668C135.53 16.3264 134.569 16.1562 133.297 16.1562H126.668V29.4119H130.163ZM131.971 22.1097H130.163V18.8536H132.011C132.734 18.8536 133.246 18.8922 133.548 18.9692C133.849 19.0463 134.04 19.1908 134.12 19.4027C134.201 19.6147 134.241 19.9775 134.241 20.4913C134.241 20.9922 134.194 21.3487 134.1 21.5606C134.006 21.7726 133.809 21.9171 133.508 21.9941C133.206 22.0712 132.694 22.1097 131.971 22.1097ZM143.762 29.4119V16.1562H140.267V29.4119H143.762ZM149.949 29.4119V21.84H150.049L154.83 29.4119H158.104V16.1562H154.749V23.0345H154.649L150.21 16.1562H146.614V29.4119H149.949ZM167.163 29.4119V19.0078H170.999V16.1562H159.851V19.0078H163.668V29.4119H167.163Z" fill="white"/>
<path d="M68.5942 46.4127V36.8125H72.0461V34.1813H62.0156V36.8125H65.4495V46.4127H68.5942ZM76.3056 46.4127V42.1281H78.4924L80.1189 46.4127H83.4082L81.4925 41.7548C82.1552 41.4703 82.5979 41.014 82.8208 40.3859C83.0437 39.7577 83.1552 39.0169 83.1552 38.1636C83.1552 37.2391 83.0618 36.5013 82.8751 35.9502C82.6883 35.3991 82.3027 34.9665 81.7184 34.6524C81.134 34.3383 80.2695 34.1813 79.1249 34.1813H73.1609V46.4127H76.3056ZM77.9321 39.6747H76.3056V36.6702H77.9683C78.6189 36.6702 79.0798 36.7058 79.3508 36.7769C79.6219 36.848 79.7936 36.9813 79.8659 37.1769C79.9382 37.3725 79.9744 37.7073 79.9744 38.1814C79.9744 38.6436 79.9322 38.9725 79.8478 39.1681C79.7635 39.3636 79.5858 39.497 79.3147 39.5681C79.0436 39.6392 78.5827 39.6747 77.9321 39.6747ZM86.9267 46.4127L87.6316 44.1015H92.0594L92.8004 46.4127H95.9993L92.0233 34.1813H87.7581L83.782 46.4127H86.9267ZM91.3184 41.5948H88.3545L89.7822 36.9191H89.8726L91.3184 41.5948ZM100.096 46.4127V34.1813H96.9515V46.4127H100.096ZM105.187 46.4127V39.4258H105.277L109.579 46.4127H112.525V34.1813H109.506V40.5281H109.416L105.422 34.1813H102.187V46.4127H105.187ZM117.76 46.4127V34.1813H114.615V46.4127H117.76ZM122.851 46.4127V39.4258H122.941L127.243 46.4127H130.188V34.1813H127.17V40.5281H127.08L123.086 34.1813H119.851V46.4127H122.851ZM137.575 46.5549C138.189 46.5549 138.903 46.5164 139.716 46.4393C140.529 46.3623 141.249 46.2645 141.876 46.146V39.2658H137.231V41.6126H138.948V44.0659C138.55 44.1015 138.135 44.1193 137.701 44.1193C136.918 44.1193 136.355 44.0245 136.011 43.8348C135.668 43.6452 135.442 43.2985 135.333 42.7948C135.225 42.2911 135.171 41.4585 135.171 40.297C135.171 39.0169 135.243 38.134 135.388 37.648C135.532 37.1621 135.824 36.8569 136.264 36.7325C136.704 36.608 137.52 36.5458 138.713 36.5458C139.436 36.5458 140.472 36.6287 141.822 36.7947V34.448C141.629 34.3887 141.093 34.3057 140.213 34.1991C139.334 34.0924 138.448 34.0391 137.556 34.0391C136.002 34.0391 134.833 34.2257 134.05 34.5991C133.267 34.9724 132.728 35.5947 132.433 36.4658C132.138 37.3369 131.99 38.614 131.99 40.297C131.99 42.0985 132.135 43.4289 132.424 44.2882C132.713 45.1474 133.243 45.74 134.014 46.066C134.785 46.3919 135.972 46.5549 137.575 46.5549Z" fill="white"/>
</svg>
