<svg xmlns="http://www.w3.org/2000/svg" viewBox="0 0 400 220" fill="none">
  <!-- Window chrome -->
  <rect x="10" y="8" width="380" height="204" rx="8" fill="#F9FAFB" stroke="#E5E7EB" stroke-width="1"/>
  <rect x="10" y="8" width="380" height="28" rx="8" fill="#132c54"/>
  <rect x="10" y="28" width="380" height="8" fill="#132c54"/>
  <circle cx="28" cy="22" r="4" fill="#EF4444"/>
  <circle cx="42" cy="22" r="4" fill="#F7C600"/>
  <circle cx="56" cy="22" r="4" fill="#22C55E"/>
  <text x="200" y="25" font-family="sans-serif" font-size="10" fill="rgba(255,255,255,0.7)" text-anchor="middle">Blueprint Training</text>
  <!-- Sidebar -->
  <rect x="10" y="36" width="90" height="176" fill="#F3F4F6"/>
  <line x1="100" y1="36" x2="100" y2="212" stroke="#E5E7EB" stroke-width="1"/>
  <rect x="20" y="46" width="70" height="8" rx="4" fill="#132c54"/>
  <rect x="20" y="62" width="60" height="6" rx="3" fill="#D1D5DB"/>
  <rect x="16" y="74" width="78" height="22" rx="4" fill="rgba(247,198,0,0.15)"/>
  <rect x="24" y="81" width="50" height="6" rx="3" fill="#F7C600"/>
  <rect x="20" y="104" width="55" height="6" rx="3" fill="#D1D5DB"/>
  <rect x="20" y="116" width="65" height="6" rx="3" fill="#D1D5DB"/>
  <rect x="20" y="128" width="48" height="6" rx="3" fill="#D1D5DB"/>
  <!-- Main content: document list -->
  <text x="116" y="54" font-family="sans-serif" font-size="11" font-weight="700" fill="#132c54">SOPs &amp; Templates</text>
  <!-- Search bar -->
  <rect x="110" y="62" width="254" height="24" rx="6" fill="white" stroke="#D1D5DB" stroke-width="1"/>
  <text x="124" y="78" font-family="sans-serif" font-size="10" fill="#9CA3AF">Search templates...</text>
  <!-- File row 1 -->
  <rect x="110" y="94" width="254" height="32" rx="4" fill="white" stroke="#E5E7EB" stroke-width="0.5"/>
  <rect x="118" y="100" width="20" height="20" rx="3" fill="rgba(247,198,0,0.12)"/>
  <text x="128" y="114" font-family="sans-serif" font-size="10" fill="#F7C600" text-anchor="middle" font-weight="700">P</text>
  <rect x="146" y="103" width="120" height="6" rx="3" fill="#374151"/>
  <rect x="146" y="114" width="80" height="5" rx="2" fill="#D1D5DB"/>
  <rect x="330" y="104" width="26" height="14" rx="7" fill="rgba(34,139,34,0.1)"/>
  <text x="343" y="114" font-family="sans-serif" font-size="8" fill="#22C55E" text-anchor="middle">New</text>
  <!-- File row 2 -->
  <rect x="110" y="130" width="254" height="32" rx="4" fill="white" stroke="#E5E7EB" stroke-width="0.5"/>
  <rect x="118" y="136" width="20" height="20" rx="3" fill="rgba(19,44,84,0.08)"/>
  <text x="128" y="150" font-family="sans-serif" font-size="10" fill="#132c54" text-anchor="middle" font-weight="700">S</text>
  <rect x="146" y="139" width="100" height="6" rx="3" fill="#374151"/>
  <rect x="146" y="150" width="70" height="5" rx="2" fill="#D1D5DB"/>
  <!-- File row 3 -->
  <rect x="110" y="166" width="254" height="32" rx="4" fill="white" stroke="#E5E7EB" stroke-width="0.5"/>
  <rect x="118" y="172" width="20" height="20" rx="3" fill="rgba(19,44,84,0.08)"/>
  <text x="128" y="186" font-family="sans-serif" font-size="10" fill="#132c54" text-anchor="middle" font-weight="700">O</text>
  <rect x="146" y="175" width="110" height="6" rx="3" fill="#374151"/>
  <rect x="146" y="186" width="90" height="5" rx="2" fill="#D1D5DB"/>
</svg>